<svg id="SvgjsSvg1001" width="288" height="288" xmlns="http://www.w3.org/2000/svg" version="1.1" xmlns:xlink="http://www.w3.org/1999/xlink" xmlns:svgjs="http://svgjs.com/svgjs"><defs id="SvgjsDefs1002"></defs><g id="SvgjsG1008" transform="matrix(1,0,0,1,0,0)"><svg xmlns="http://www.w3.org/2000/svg" enable-background="new 0 0 512 512" viewBox="0 0 512 512" width="288" height="288"><path d="M391.5 211c-33.359 0-60.5 27.141-60.5 60.5s27.141 60.5 60.5 60.5 60.5-27.141 60.5-60.5S424.859 211 391.5 211zM391.5 302c-16.817 0-30.5-13.683-30.5-30.5 0-16.817 13.683-30.5 30.5-30.5 16.817 0 30.5 13.683 30.5 30.5S408.317 302 391.5 302zM115 0C51.589 0 0 51.589 0 115v282c0 63.411 51.589 115 115 115h126V0H115zM211 482h-96c-46.869 0-85-38.131-85-85V115c0-46.869 38.131-85 85-85h96V482z" fill="#ffffff" class="color000 svgShape"></path><path d="M397 0H271v512h126c63.411 0 115-51.589 115-115V115C512 51.589 460.411 0 397 0zM482 397c0 46.869-38.131 85-85 85h-96V30h96c46.869 0 85 38.131 85 85V397zM120.5 90C87.141 90 60 117.141 60 150.5S87.141 211 120.5 211s60.5-27.141 60.5-60.5S153.859 90 120.5 90zM120.5 181c-16.817 0-30.5-13.683-30.5-30.5s13.683-30.5 30.5-30.5 30.5 13.683 30.5 30.5S137.317 181 120.5 181z" fill="#ffffff" class="color000 svgShape"></path></svg></g></svg>